<svg xmlns="http://www.w3.org/2000/svg" viewBox="0 0 77.47 70.3"><defs><style>.cls-1{fill:#121212;}</style></defs><g id="Layer_2" data-name="Layer 2"><g id="Layer_1-2" data-name="Layer 1"><g id="SvgjsG1189"><path class="cls-1" d="M64.61,1.41C49.82-11.3,8.28,65.91,8.28,65.91,32.22,47.14,79.41,14.13,64.61,1.41Z"/><path class="cls-1" d="M77.16,43.94c-3.81-10.31-45.4,16.38-45.4,16.38C48.69,57.61,81,54.26,77.16,43.94Z"/><path class="cls-1" d="M40.71,68.34c7.64,1.16,21.95,4.15,21.72-.8S40.71,68.34,40.71,68.34Z"/><path class="cls-1" d="M2,29.21c-4.95.26.94,21.72.94,21.72C4,43.29,6.92,29,2,29.21Z"/><path class="cls-1" d="M21.12,7.67c-7.74-2.41-10.86,33.9-10.86,33.9C16.3,30.46,28.86,10.08,21.12,7.67Z"/></g></g></g></svg>