<svg xmlns="http://www.w3.org/2000/svg" viewBox="0 0 309.89 43.68"><defs><style>.cls-1{fill:#121212;}</style></defs><g id="Layer_2" data-name="Layer 2"><g id="Layer_1-2" data-name="Layer 1"><g id="SvgjsG1190"><path class="cls-1" d="M16.89,0A14.79,14.79,0,0,1,31.72,14.51,14.64,14.64,0,0,1,16.89,29.12H6.12V42.38a.81.81,0,0,1-.87.92H.87A.81.81,0,0,1,0,42.38V.87A.82.82,0,0,1,.87,0ZM16.4,23.22c6,0,9.26-4.38,9.26-8.71S22.36,5.9,16.4,5.9H6.12V23.22Zm38.76-5.36c.59.38.76.71.38,1.3l-2.22,3.25a1,1,0,0,1-1.14.38,8,8,0,0,0-3.9-1,6.57,6.57,0,0,0-6.11,4.11V42.44a.81.81,0,0,1-.82.86H37.08a.81.81,0,0,1-.81-.86V17.38a.85.85,0,0,1,.81-.87h3a2.34,2.34,0,0,1,2.11,2.33v.38a10.18,10.18,0,0,1,7.14-2.93,10.73,10.73,0,0,1,5.85,1.57ZM72.37,43.68A13.78,13.78,0,1,0,58.51,29.93,13.76,13.76,0,0,0,72.37,43.68Zm0-5.52A8.26,8.26,0,1,1,80.49,30,8.15,8.15,0,0,1,72.37,38.16Zm64.9,4c.17.59-.05,1.13-.54,1.13h-3.51a2,2,0,0,1-2.12-2.16V27c0-3.52-2.49-5.57-6.06-5.57-3.08,0-5.68,1.78-7.9,4a6.77,6.77,0,0,1,0,1v12a31.49,31.49,0,0,0,.33,3.74c.11.59-.06,1.13-.54,1.13h-3.52a2,2,0,0,1-2.11-2.16V27c0-3.52-2.49-5.57-6.07-5.57-3.08,0-5.68,1.73-7.85,3.95v17a.84.84,0,0,1-.86.86H92.35a.81.81,0,0,1-.82-.86V17.38a.82.82,0,0,1,.82-.87h2.92a2.44,2.44,0,0,1,2.17,2.33v.54a13.84,13.84,0,0,1,8.6-3.19,11.41,11.41,0,0,1,9.53,4.6c2.16-2,5.52-4.61,10.28-4.61,5.58,0,11.15,3.52,11.15,10.29v12a35.63,35.63,0,0,0,.27,3.74ZM165.15,32.1a3,3,0,0,0,3.3-3.25,12.67,12.67,0,0,0-13-12.72A13.39,13.39,0,0,0,142,29.88a13.38,13.38,0,0,0,13.75,13.69,13.13,13.13,0,0,0,10.93-5.08c.33-.44.22-.76-.1-1.2l-1-1.35c-.43-.54-.87-.49-1.41-.16a12.7,12.7,0,0,1-7.74,2.6c-4.44,0-7.58-2.71-8.17-6.28Zm-16.94-4.6a6.88,6.88,0,0,1,7.09-6,6.72,6.72,0,0,1,7,6Zm41.84,14.07c.16.43-.16.7-.54,1a10.52,10.52,0,0,1-4.93,1c-5.79,0-7.9-3-7.9-10V22.19h-3.19a.82.82,0,0,1-.87-.86v-.92a1.42,1.42,0,0,1,.43-1.09,23.38,23.38,0,0,0,7.8-10.66c.16-.38.32-.6.59-.6h.6c.43,0,.59.22.59.71v7.74h5.69a.92.92,0,0,1,.92.92v3.9a.91.91,0,0,1-.92.86h-4.71a2.55,2.55,0,0,1-1-.16v11c0,3.14.38,4.93,3,4.93a9.39,9.39,0,0,0,2.55-.33.87.87,0,0,1,1.19.71Zm31.94.6c.1.59-.06,1.13-.54,1.13h-3.52a2,2,0,0,1-2.11-2.16V27.07c0-3.58-2.49-5.63-6.07-5.63A11.11,11.11,0,0,0,201.9,25V42.44a1.09,1.09,0,0,1-.1.43,1,1,0,0,1-.33.33,1.34,1.34,0,0,1-.43.1h-4.22a.81.81,0,0,1-.82-.86V4.6a13.58,13.58,0,0,0-.43-3.46c-.11-.6.06-1.14.6-1.14h3.68a1.9,1.9,0,0,1,2.05,2V19.38a14,14,0,0,1,8.67-3.25c5.52,0,11.09,3.52,11.09,10.29v12a31.69,31.69,0,0,0,.33,3.74ZM249.43,32.1a3,3,0,0,0,3.3-3.25,12.67,12.67,0,0,0-13-12.72,13.39,13.39,0,0,0-13.43,13.75A13.38,13.38,0,0,0,240,43.57a13.13,13.13,0,0,0,10.93-5.08c.33-.44.22-.76-.1-1.2l-1-1.35c-.43-.54-.87-.49-1.41-.16a12.7,12.7,0,0,1-7.74,2.6c-4.44,0-7.58-2.71-8.17-6.28Zm-16.94-4.6a6.88,6.88,0,0,1,7.09-6,6.72,6.72,0,0,1,7,6Zm50.12-11a.83.83,0,0,1,.81.92v25a.8.8,0,0,1-.75.86h-3.36c-.92,0-1.68-1.35-1.73-2.27v-.59a14.08,14.08,0,0,1-8.66,3.19c-5.58,0-11.15-3.52-11.15-10.29v-12a25.35,25.35,0,0,0-.27-3.73c-.11-.6.05-1.14.54-1.14h3.52a2,2,0,0,1,2.11,2.16V32.8c0,3.57,2.43,5.58,6.06,5.58,3.08,0,5.63-1.73,7.85-4v-17a.83.83,0,0,1,.81-.92ZM289,39.41l1.84-2.93c.38-.59.7-.75,1.24-.48a14.37,14.37,0,0,0,7,2c3.14,0,4.22-1.24,4.22-2.49,0-1.84-2-2.49-5.63-3.41-5.14-1.35-8.55-4-8.55-8.12s3.46-7.84,10-7.84a16.77,16.77,0,0,1,8.82,2.59c.54.33.81.82.49,1.25l-2,3.08a1,1,0,0,1-1.19.44,14,14,0,0,0-6.11-1.74c-3,0-3.85,1.52-3.85,2.44,0,1.57,2.28,2.33,5,3.09,4.81,1.29,9.63,3.62,9.63,8.33,0,4.55-4.33,8-10.82,8a17.57,17.57,0,0,1-9.8-3.24.75.75,0,0,1-.27-1Z"/></g></g></g></svg>