<svg xmlns="http://www.w3.org/2000/svg" viewBox="0 0 409.5 70.3"><defs><style>.cls-1{fill:currentColor;}</style></defs><g id="Layer_2" data-name="Layer 2"><g id="Layer_1-2" data-name="Layer 1"><g id="SvgjsG1189"><path class="cls-1" d="M64.61,1.41C49.82-11.3,8.28,65.91,8.28,65.91,32.22,47.14,79.41,14.13,64.61,1.41Z"/><path class="cls-1" d="M77.16,43.94c-3.81-10.31-45.4,16.38-45.4,16.38C48.69,57.61,81,54.26,77.16,43.94Z"/><path class="cls-1" d="M40.71,68.34c7.64,1.16,21.95,4.15,21.72-.8S40.71,68.34,40.71,68.34Z"/><path class="cls-1" d="M2,29.21c-4.95.26.94,21.72.94,21.72C4,43.29,6.92,29,2,29.21Z"/><path class="cls-1" d="M21.12,7.67c-7.74-2.41-10.86,33.9-10.86,33.9C16.3,30.46,28.86,10.08,21.12,7.67Z"/></g><g id="SvgjsG1190"><path class="cls-1" d="M116.5,14.39A14.79,14.79,0,0,1,131.33,28.9,14.64,14.64,0,0,1,116.5,43.51H105.72V56.77a.81.81,0,0,1-.86.92h-4.39a.81.81,0,0,1-.86-.92V15.25a.82.82,0,0,1,.86-.86ZM116,37.61c5.95,0,9.26-4.39,9.26-8.72s-3.31-8.6-9.26-8.6H105.73V37.61Zm38.76-5.36c.59.38.75.7.37,1.3l-2.21,3.25a1,1,0,0,1-1.14.38,7.84,7.84,0,0,0-3.9-1,6.57,6.57,0,0,0-6.11,4.11V56.83a.81.81,0,0,1-.82.86h-4.27a.81.81,0,0,1-.82-.86V31.76a.85.85,0,0,1,.82-.86h3a2.33,2.33,0,0,1,2.11,2.32v.38a10.26,10.26,0,0,1,7.15-2.92,10.73,10.73,0,0,1,5.85,1.57ZM172,58.07a13.78,13.78,0,1,0-13.86-13.75A13.76,13.76,0,0,0,172,58.07Zm0-5.52a8.26,8.26,0,1,1,8.12-8.17A8.15,8.15,0,0,1,172,52.55Zm64.9,4c.16.59,0,1.13-.54,1.13h-3.52a2,2,0,0,1-2.11-2.16V41.4c0-3.52-2.49-5.58-6.06-5.58-3.09,0-5.68,1.79-7.9,4a6.71,6.71,0,0,1,.05,1v12a29.69,29.69,0,0,0,.33,3.74c.1.59-.06,1.13-.55,1.13h-3.51A2,2,0,0,1,211,55.53V41.4c0-3.52-2.49-5.58-6.06-5.58-3.08,0-5.68,1.74-7.85,4v17a.85.85,0,0,1-.86.86H192a.81.81,0,0,1-.81-.86V31.76a.81.81,0,0,1,.81-.86h2.93A2.42,2.42,0,0,1,197,33.23v.54a13.87,13.87,0,0,1,8.61-3.2,11.45,11.45,0,0,1,9.53,4.6c2.16-2,5.52-4.6,10.28-4.6,5.58,0,11.15,3.52,11.15,10.29v12a32.73,32.73,0,0,0,.27,3.73Zm27.88-10.07a3,3,0,0,0,3.3-3.25A12.67,12.67,0,0,0,255,30.52a13.39,13.39,0,0,0-13.42,13.75A13.38,13.38,0,0,0,255.34,58c4.82,0,8.61-2,10.93-5.09.33-.43.22-.75-.1-1.19l-1-1.35c-.44-.54-.87-.49-1.41-.16a12.77,12.77,0,0,1-7.74,2.6c-4.44,0-7.58-2.71-8.17-6.28Zm-16.94-4.6a6.88,6.88,0,0,1,7.09-6,6.72,6.72,0,0,1,7,6H247.82ZM289.66,56c.16.43-.16.7-.54,1a10.42,10.42,0,0,1-4.93,1c-5.79,0-7.9-3-7.9-10V36.58h-3.2a.82.82,0,0,1-.86-.87v-.92a1.41,1.41,0,0,1,.43-1.08,23.38,23.38,0,0,0,7.8-10.66c.16-.38.32-.6.59-.6h.6c.43,0,.59.22.59.71V30.9h5.69a.92.92,0,0,1,.92.92v3.89a.91.91,0,0,1-.92.87h-4.71a2.49,2.49,0,0,1-1-.16v11c0,3.14.38,4.93,3,4.93a9.72,9.72,0,0,0,2.54-.33.86.86,0,0,1,1.19.71Zm31.93.6c.11.59,0,1.13-.54,1.13h-3.52a2,2,0,0,1-2.11-2.16V41.45c0-3.57-2.49-5.63-6.06-5.63a11.12,11.12,0,0,0-7.85,3.58V56.83a.94.94,0,0,1-.11.43.81.81,0,0,1-.32.32,1.14,1.14,0,0,1-.43.11h-4.23a.81.81,0,0,1-.81-.86V19a13.58,13.58,0,0,0-.43-3.46c-.11-.6.05-1.14.6-1.14h3.68a1.9,1.9,0,0,1,2.05,1.95V33.77a13.93,13.93,0,0,1,8.66-3.25c5.53,0,11.1,3.52,11.1,10.28v12a31.53,31.53,0,0,0,.32,3.73ZM349,46.49a3,3,0,0,0,3.3-3.25,12.67,12.67,0,0,0-13-12.72,13.39,13.39,0,0,0-13.42,13.75A13.38,13.38,0,0,0,339.62,58c4.82,0,8.61-2,10.93-5.09.33-.43.22-.75-.1-1.19l-1-1.35c-.44-.54-.87-.49-1.41-.16a12.77,12.77,0,0,1-7.74,2.6c-4.44,0-7.58-2.71-8.17-6.28Zm-16.94-4.6a6.88,6.88,0,0,1,7.09-6,6.72,6.72,0,0,1,7,6H332.1Zm50.12-11a.83.83,0,0,1,.81.92v25a.8.8,0,0,1-.76.86h-3.35c-.92,0-1.68-1.35-1.73-2.27v-.6a14,14,0,0,1-8.66,3.2c-5.58,0-11.16-3.52-11.16-10.29v-12A24.28,24.28,0,0,0,357.1,32c-.1-.59.06-1.13.54-1.13h3.52a2,2,0,0,1,2.11,2.16V47.19c0,3.57,2.44,5.58,6.07,5.58,3.08,0,5.63-1.74,7.85-4v-17a.83.83,0,0,1,.81-.92Zm6.39,22.89,1.84-2.92c.38-.59.7-.76,1.24-.49a14.2,14.2,0,0,0,7,2.06c3.14,0,4.23-1.24,4.23-2.49,0-1.84-2-2.49-5.63-3.41-5.15-1.35-8.56-4-8.56-8.12s3.47-7.85,10-7.85a16.78,16.78,0,0,1,8.83,2.6c.54.33.81.81.48,1.25l-2,3.08a1,1,0,0,1-1.19.43,14.19,14.19,0,0,0-6.12-1.73c-3,0-3.84,1.52-3.84,2.44,0,1.57,2.27,2.33,5,3.08,4.82,1.3,9.64,3.63,9.64,8.34,0,4.55-4.33,8-10.83,8a17.47,17.47,0,0,1-9.79-3.25.74.74,0,0,1-.27-1Z"/></g></g></g></svg>